{"title":"The Miracle of Our Lady Fatima [DVDRIP] 1952","uid":5657293,"size":1105591532,"categoryP":"video","categoryS":"movies","magnet":"?xt=urn:btih:e49d184916ae8cca0c0fac3a51fe820b25253838&amp;dn=The+Miracle+of+Our+Lady+Fatima+%5BDVDRIP%5D+1952&amp;tr=udp%3A%2F%2Ftracker.openbittorrent.com%3A80&amp;tr=udp%3A%2F%2Fopen.demonii.com%3A1337&amp;tr=udp%3A%2F%2Ftracker.coppersurfer.tk%3A6969&amp;tr=udp%3A%2F%2Fexodus.desync.com%3A6969","seeders":2,"leechers":0,"uploader":"dubbie","files":-1,"time":1277849013,"description":"***********************************************************************************\n                            The Miracle of Our Lady Fatima\n***********************************************************************************\nGeneral\n*********\nComplete name                    : The Miracle of Our Lady Fatima.avi\nFormat                           : AVI\nFormat/Info                      : Audio Video Interleave\nFile size                        : 1.03 GiB\nDuration                         : 1h 47mn\nOverall bit rate                 : 1 370 Kbps\nWriting library                  : VirtualDub build 24469/release\n***********************************************************************************\nPLOT :\n*******\nIn 1917, three shepherd children living just outside Fatima, Portugal have visions of a lovely lady in a cloud. The anticlerical government wishes to squelch the Church; reports of religious experiences are cause for serious concern. Yet the children stand by their story, and the message of peace and hope the Lady brings. In the last vision, attended by thousands of people, the Lady proves her reality with a spectacular miracle that is seen by everyone present. Based on actual events at Fatima in the summer of 1917..\n***********************************************************************************\nCAST:\n******\nGilbert Roland\t ... \tHugo da Silva\n\nAngela Clarke\t... \tMaria Rosa AbÃƒÂ³bora dos Santos\n\nFrank Silvera\t... \tCouncil Administrator Artur dos Santos\n\nJay Novello\t... \tAntÃƒÂ³nio AbÃƒÂ³bora dos Santos\n\nRichard Hale\t... \tFather Ferreira\n\nNorman Rice\t... \tManuel Marto\n\nFrances Morris\t... \tOlÃƒÂ­mpia Marto (as Francis Morris)\n\nCarl Milletaire\t... \tDistrict Magistrate (as Carl Millitaire)\n\nSusan Whitney\t... \tLÃƒÂºcia AbÃƒÂ³bora dos Santos\n\nSherry Jackson\t... \tJacinta Marto\n\nSammy Ogg\t... \tFrancisco Marto\n**********************************************************************************\n                        &lt;a href=&quot; http://www.imdb.com/title/tt0044905/&quot; rel=&quot;nofollow&quot; target=&quot;_NEW&quot;&gt; http://www.imdb.com/title/tt0044905/&lt;/a&gt;\n**********************************************************************************\nVideo\nID                               : 0\nFormat                           : MPEG-4 Visual\nFormat profile                   : AdvancedSimple@L5\nFormat settings, BVOP            : Yes\nFormat settings, QPel            : No\nFormat settings, GMC             : No warppoints\nFormat settings, Matrix          : Default (H.263)\nMuxing mode                      : Packed bitstream\nCodec ID                         : XVID\nCodec ID/Hint                    : XviD\nDuration                         : 1h 47mn\nBit rate                         : 1 045 Kbps\nWidth                            : 720 pixels\nHeight                           : 480 pixels\nDisplay aspect ratio             : 1.500\nFrame rate                       : 29.970 fps\nStandard                         : NTSC\nResolution                       : 24 bits\nColorimetry                      : 4:2:0\nScan type                        : Progressive\nBits/(Pixel*Frame)               : 0.101\nStream size                      : 804 MiB (76%)\nWriting library                  : XviD 1.2.0.dev47 (UTC 2006-11-01)\n\nAudio\nID                               : 1\nFormat                           : MPEG Audio\nFormat version                   : Version 1\nFormat profile                   : Layer 3\nCodec ID                         : 55\nCodec ID/Hint                    : MP3\nDuration                         : 1h 45mn\nBit rate mode                    : Constant\nBit rate                         : 320 Kbps\nChannel(s)                       : 2 channels\nSampling rate                    : 44.1 KHz\nResolution                       : 16 bits\nStream size                      : 240 MiB (23%)\nAlignment                        : Split accross interleaves\nInterleave, duration             : 31 ms (0.93 video frame)\nInterleave, preload duration     : 500 ms\nWriting library                  : LAME3.97\n\n*********************************************************************************","torrent":{"xt":"urn:btih:e49d184916ae8cca0c0fac3a51fe820b25253838","amp;dn":"The+Miracle+of+Our+Lady+Fatima+%5BDVDRIP%5D+1952","amp;tr":["udp%3A%2F%2Ftracker.openbittorrent.com%3A80","udp%3A%2F%2Fopen.demonii.com%3A1337","udp%3A%2F%2Ftracker.coppersurfer.tk%3A6969","udp%3A%2F%2Fexodus.desync.com%3A6969"],"infoHash":"e49d184916ae8cca0c0fac3a51fe820b25253838","infoHashBuffer":{"type":"Buffer","data":[228,157,24,73,22,174,140,202,12,15,172,58,81,254,130,11,37,37,56,56]},"announce":[],"urlList":[]}}